<svg width="34" height="34" viewBox="0 0 34 34" fill="none" xmlns="http://www.w3.org/2000/svg">
<g id="Group">
<path id="Vector" d="M17.0001 0.565186L17.8743 3.25559H20.703L18.4144 4.9183L19.2887 7.6087L17.0001 5.94588L14.7114 7.6087L15.5857 4.9183L13.2971 3.25559H16.1259L17.0001 0.565186Z" fill="#FFDA44"/>
<path id="Vector_2" d="M5.37882 5.37876L7.89952 6.66295L9.89974 4.66284L9.45709 7.45671L11.9777 8.741L9.18371 9.18355L8.74116 11.9776L7.45687 9.45703L4.663 9.89968L6.66322 7.89947L5.37882 5.37876Z" fill="#FFDA44"/>
<path id="Vector_3" d="M0.565332 16.9999L3.25573 16.1257V13.2969L4.91834 15.5855L7.60885 14.7113L5.94592 16.9999L7.60885 19.2884L4.91834 18.4143L3.25573 20.7029V17.8741L0.565332 16.9999Z" fill="#FFDA44"/>
<path id="Vector_4" d="M5.37882 28.6212L6.66311 26.1005L4.663 24.1003L7.45698 24.5431L8.74106 22.0225L9.18371 24.8164L11.9776 25.259L9.4573 26.5433L9.89974 29.3371L7.89952 27.3369L5.37882 28.6212Z" fill="#FFDA44"/>
<path id="Vector_5" d="M17.0001 33.4347L16.1258 30.7443H13.2971L15.5858 29.0815L14.7114 26.3914L17.0001 28.054L19.2887 26.3914L18.4144 29.0815L20.703 30.7443H17.8742L17.0001 33.4347Z" fill="#FFDA44"/>
<path id="Vector_6" d="M28.6213 28.6212L26.1007 27.337L24.1004 29.3372L24.543 26.5432L22.0226 25.259L24.8165 24.8164L25.259 22.0225L26.5432 24.5431L29.3371 24.1003L27.3369 26.1007L28.6213 28.6212Z" fill="#FFDA44"/>
<path id="Vector_7" d="M33.4348 16.9999L30.7444 17.8741V20.7029L29.0817 18.4142L26.3915 19.2884L28.0542 16.9999L26.3915 14.7113L29.0818 15.5855L30.7444 13.2969V16.1258L33.4348 16.9999Z" fill="#FFDA44"/>
<path id="Vector_8" d="M28.6213 5.37866L27.337 7.89936L29.3372 9.89958L26.5431 9.45682L25.259 11.9774L24.8165 9.18345L22.0226 8.74079L24.543 7.45661L24.1004 4.66284L26.1008 6.66295L28.6213 5.37866Z" fill="#FFDA44"/>
</g>
</svg>
