<svg width="23" height="18" viewBox="0 0 23 18" fill="none" xmlns="http://www.w3.org/2000/svg">
<g id="Group">
<path id="Vector" d="M4.43478 9.08691C4.43478 5.15314 7.19943 1.86694 10.8913 1.06063C10.3238 0.936813 9.73521 0.869629 9.13035 0.869629C4.59193 0.869629 0.912964 4.54859 0.912964 9.08702C0.912964 13.6254 4.59193 17.3044 9.13035 17.3044C9.735 17.3044 10.3237 17.2372 10.8913 17.1133C7.19943 16.307 4.43478 13.0208 4.43478 9.08691Z" fill="#F0F0F0"/>
<path id="Vector_2" d="M15 1.45654L15.5828 3.25004H17.4687L15.9429 4.35862L16.5257 6.15212L15 5.04375L13.4743 6.15212L14.0571 4.35862L12.5314 3.25004H14.4172L15 1.45654Z" fill="#F0F0F0"/>
<path id="Vector_3" d="M10.4253 4.97827L11.008 6.77187H12.8939L11.3682 7.88035L11.951 9.67385L10.4253 8.56547L8.89937 9.67385L9.4823 7.88035L7.95648 6.77187H9.84237L10.4253 4.97827Z" fill="#F0F0F0"/>
<path id="Vector_4" d="M19.5748 4.97827L20.1577 6.77187H22.0435L20.5177 7.88035L21.1006 9.67385L19.5748 8.56547L18.0491 9.67385L18.6319 7.88035L17.1062 6.77187H18.992L19.5748 4.97827Z" fill="#F0F0F0"/>
<path id="Vector_5" d="M17.814 10.261L18.3968 12.0546H20.2826L18.7569 13.1631L19.3397 14.9566L17.814 13.8482L16.2883 14.9566L16.8711 13.1631L15.3454 12.0546H17.2311L17.814 10.261Z" fill="#F0F0F0"/>
<path id="Vector_6" d="M12.1861 10.261L12.7688 12.0546H14.6548L13.129 13.1631L13.7119 14.9566L12.1861 13.8482L10.6603 14.9566L11.2431 13.1631L9.71738 12.0546H11.6033L12.1861 10.261Z" fill="#F0F0F0"/>
</g>
</svg>
