<svg width="16" height="16" viewBox="0 0 16 16" fill="none" xmlns="http://www.w3.org/2000/svg">
<g id="paid_black_24dp (3) 1" clip-path="url(#clip0_1518_4918)">
<g id="Group">
<path id="Vector" d="M8.00001 1.33325C4.32001 1.33325 1.33334 4.31992 1.33334 7.99992C1.33334 11.6799 4.32001 14.6666 8.00001 14.6666C11.68 14.6666 14.6667 11.6799 14.6667 7.99992C14.6667 4.31992 11.68 1.33325 8.00001 1.33325ZM8.00001 13.3333C5.06001 13.3333 2.66668 10.9399 2.66668 7.99992C2.66668 5.05992 5.06001 2.66659 8.00001 2.66659C10.94 2.66659 13.3333 5.05992 13.3333 7.99992C13.3333 10.9399 10.94 13.3333 8.00001 13.3333ZM8.59334 7.39992C7.40668 7.00659 6.83334 6.75992 6.83334 6.13325C6.83334 5.45325 7.57334 5.20658 8.04001 5.20658C8.91334 5.20658 9.23334 5.86658 9.30668 6.09992L10.36 5.65325C10.26 5.35992 9.81334 4.37992 8.58668 4.16659V3.33325H7.42001V4.17325C5.68668 4.54659 5.67334 6.07325 5.67334 6.14658C5.67334 7.65992 7.17334 8.08658 7.90668 8.35325C8.96001 8.72658 9.42668 9.06659 9.42668 9.70658C9.42668 10.4599 8.72668 10.7799 8.10668 10.7799C6.89334 10.7799 6.54668 9.53325 6.50668 9.38658L5.40001 9.83325C5.82001 11.2933 6.92001 11.6866 7.41334 11.8066V12.6666H8.58001V11.8399C8.92668 11.7799 10.5933 11.4466 10.5933 9.69325C10.6 8.76658 10.1933 7.95325 8.59334 7.39992Z" fill="#2B7CFF"/>
</g>
</g>
<defs>
<clipPath id="clip0_1518_4918">
<rect width="16" height="16" fill="white"/>
</clipPath>
</defs>
</svg>
